ISO-10303-21;
HEADER;
FILE_DESCRIPTION (( 'STEP AP203' ),
    '1' );
FILE_NAME ('COAT HANGER.STEP',
    '2023-06-11T17:31:04',
    ( 'HP' ),
    ( '' ),
    'SwSTEP 2.0',
    'SolidWorks 2022',
    '' );
FILE_SCHEMA (( 'CONFIG_CONTROL_DESIGN' ));
ENDSEC;

DATA;
#1 = CARTESIAN_POINT ( 'NONE',  ( -176.1140227220807333, 39.87467497228250579, 0.000000000000000000 ) ) ;
#2 = ORIENTED_EDGE ( 'NONE', *, *, #444, .T. ) ;
#3 = ADVANCED_FACE ( 'NONE', ( #598 ), #707, .T. ) ;
#4 = ORIENTED_EDGE ( 'NONE', *, *, #160, .F. ) ;
#5 = DIRECTION ( 'NONE',  ( 1.000000000000000000, 0.000000000000000000, 0.000000000000000000 ) ) ;
#6 = DIRECTION ( 'NONE',  ( -0.000000000000000000, -0.000000000000000000, -1.000000000000000000 ) ) ;
#7 = CARTESIAN_POINT ( 'NONE',  ( 53.99999999999998579, 207.9999999999999716, 0.000000000000000000 ) ) ;
#8 = VERTEX_POINT ( 'NONE', #765 ) ;
#9 = DIRECTION ( 'NONE',  ( -0.000000000000000000, -0.000000000000000000, -1.000000000000000000 ) ) ;
#10 = DIRECTION ( 'NONE',  ( 0.8987940462991662605, 0.4383711467890790692, 0.000000000000000000 ) ) ;
#11 = AXIS2_PLACEMENT_3D ( 'NONE', #430, #255, #580 ) ;
#12 = DIRECTION ( 'NONE',  ( 1.000000000000000000, 0.000000000000000000, 0.000000000000000000 ) ) ;
#13 = CARTESIAN_POINT ( 'NONE',  ( 79.25580469341009859, 107.0000000000000426, -1.000000000000000000 ) ) ;
#14 = ADVANCED_FACE ( 'NONE', ( #343 ), #602, .T. ) ;
#15 =( NAMED_UNIT ( * ) SI_UNIT ( $, .STERADIAN. ) SOLID_ANGLE_UNIT ( ) );
#16 = CARTESIAN_POINT ( 'NONE',  ( 1.077573489560504801E-14, 159.3720573940034342, 2.999999999999998668 ) ) ;
#17 = CARTESIAN_POINT ( 'NONE',  ( 1.040834085586084257E-14, 208.0000000000000568, 0.000000000000000000 ) ) ;
#18 = ADVANCED_FACE ( 'NONE', ( #346 ), #514, .T. ) ;
#19 = CARTESIAN_POINT ( 'NONE',  ( 22.56107268001511912, 133.4371877148910244, 1.000000000000000000 ) ) ;
#20 = AXIS2_PLACEMENT_3D ( 'NONE', #306, #805, #354 ) ;
#21 = EDGE_CURVE ( 'NONE', #153, #89, #330, .T. ) ;
#22 = CARTESIAN_POINT ( 'NONE',  ( 1.040834085586084257E-14, 208.0000000000000568, 0.000000000000000000 ) ) ;
#23 = APPROVAL_ROLE ( '' ) ;
#24 = VERTEX_POINT ( 'NONE', #189 ) ;
#25 = PRODUCT_DEFINITION_SHAPE ( 'NONE', 'NONE',  #508 ) ;
#26 = AXIS2_PLACEMENT_3D ( 'NONE', #63, #84, #513 ) ;
#27 = AXIS2_PLACEMENT_3D ( 'NONE', #457, #523, #287 ) ;
#28 = DIRECTION ( 'NONE',  ( -0.000000000000000000, -0.000000000000000000, -1.000000000000000000 ) ) ;
#29 = EDGE_CURVE ( 'NONE', #570, #348, #336, .T. ) ;
#30 = DIRECTION ( 'NONE',  ( -0.4383711467890744617, 0.8987940462991684809, 0.000000000000000000 ) ) ;
#31 = ADVANCED_FACE ( 'NONE', ( #600 ), #61, .T. ) ;
#32 = ORIENTED_EDGE ( 'NONE', *, *, #736, .F. ) ;
#33 = EDGE_CURVE ( 'NONE', #167, #24, #587, .T. ) ;
#34 = DIRECTION ( 'NONE',  ( -0.000000000000000000, -1.000000000000000000, -0.000000000000000000 ) ) ;
#35 = ORIENTED_EDGE ( 'NONE', *, *, #274, .T. ) ;
#36 = EDGE_LOOP ( 'NONE', ( #601, #494, #119 ) ) ;
#37 = CARTESIAN_POINT ( 'NONE',  ( 1.040834085586084257E-14, 159.3720573940034342, -2.999999999999998668 ) ) ;
#38 = CARTESIAN_POINT ( 'NONE',  ( 221.0917713604898438, 21.00000000000000000, 3.673940397442058389E-16 ) ) ;
#39 = CARTESIAN_POINT ( 'NONE',  ( 221.0917713604898722, -3.000000000000005773, 0.000000000000000000 ) ) ;
#40 = VERTEX_POINT ( 'NONE', #298 ) ;
#41 = DIRECTION ( 'NONE',  ( 0.9063077870366531563, -0.4226182617406930575, 0.000000000000000000 ) ) ;
#42 = CARTESIAN_POINT ( 'NONE',  ( 0.000000000000000000, 0.000000000000000000, -1.000000000000000000 ) ) ;
#43 = AXIS2_PLACEMENT_3D ( 'NONE', #754, #135, #12 ) ;
#44 = AXIS2_PLACEMENT_3D ( 'NONE', #49, #481, #370 ) ;
#45 = CARTESIAN_POINT ( 'NONE',  ( 20.22668981057760007, 135.2171109610292206, 2.182172965387711994 ) ) ;
#46 = ORIENTED_EDGE ( 'NONE', *, *, #427, .T. ) ;
#47 = ORIENTED_EDGE ( 'NONE', *, *, #266, .F. ) ;
#48 = DIRECTION ( 'NONE',  ( 0.000000000000000000, -0.000000000000000000, 1.000000000000000000 ) ) ;
#49 = CARTESIAN_POINT ( 'NONE',  ( -187.9082286395100994, 21.00000000000001066, 0.000000000000000000 ) ) ;
#50 = EDGE_LOOP ( 'NONE', ( #803, #377, #213, #626, #741, #636, #544 ) ) ;
#51 = AXIS2_PLACEMENT_3D ( 'NONE', #229, #337, #236 ) ;
#52 = VERTEX_POINT ( 'NONE', #357 ) ;
#53 = DIRECTION ( 'NONE',  ( -1.000000000000000000, 5.551115123125782702E-17, 0.000000000000000000 ) ) ;
#54 = ADVANCED_FACE ( 'NONE', ( #64 ), #591, .T. ) ;
#55 = CARTESIAN_POINT ( 'NONE',  ( 18.99999999999998934, 159.3720573940034058, 0.000000000000000000 ) ) ;
#56 = CARTESIAN_POINT ( 'NONE',  ( -176.1140227220807333, 39.87467497228250579, 0.000000000000000000 ) ) ;
#57 =( BOUNDED_CURVE ( )  B_SPLINE_CURVE ( 3, ( #585, #45, #111, #663 ),
 .UNSPECIFIED., .F., .F. ) 
 B_SPLINE_CURVE_WITH_KNOTS ( ( 4, 4 ),
 ( 5.164688565553211319, 6.283185307179586232 ),
 .UNSPECIFIED. ) 
 CURVE ( )  GEOMETRIC_REPRESENTATION_ITEM ( )  RATIONAL_B_SPLINE_CURVE ( ( 1.000000000000000000, 0.8984360844659644574, 0.8984360844659644574, 1.000000000000000000 ) ) 
 REPRESENTATION_ITEM ( '' )  );
#58 = DIRECTION ( 'NONE',  ( 1.000000000000000000, 0.000000000000000000, 1.217063773920449236E-16 ) ) ;
#59 = AXIS2_PLACEMENT_3D ( 'NONE', #182, #715, #291 ) ;
#60 = AXIS2_PLACEMENT_3D ( 'NONE', #254, #564, #670 ) ;
#61 = TOROIDAL_SURFACE ( 'NONE', #660, 26.99999999999998934, 2.999999999999998668 ) ;
#62 = EDGE_CURVE ( 'NONE', #536, #8, #353, .T. ) ;
#63 = CARTESIAN_POINT ( 'NONE',  ( 221.0917713604898438, 21.00000000000000000, 0.000000000000000000 ) ) ;
#64 = FACE_OUTER_BOUND ( 'NONE', #261, .T. ) ;
#65 = ADVANCED_FACE ( 'NONE', ( #360 ), #627, .T. ) ;
#66 = ORIENTED_EDGE ( 'NONE', *, *, #690, .F. ) ;
#67 = ORIENTED_EDGE ( 'NONE', *, *, #577, .F. ) ;
#68 = CARTESIAN_POINT ( 'NONE',  ( -166.9082286395100994, 21.00000000000001066, 0.000000000000000000 ) ) ;
#69 = DIRECTION ( 'NONE',  ( 0.8987940462991663715, 0.4383711467890791247, 0.000000000000000000 ) ) ;
#70 = AXIS2_PLACEMENT_3D ( 'NONE', #518, #202, #777 ) ;
#71 = AXIS2_PLACEMENT_3D ( 'NONE', #42, #108, #174 ) ;
#72 = EDGE_CURVE ( 'NONE', #464, #40, #103, .T. ) ;
#73 = DIRECTION ( 'NONE',  ( 0.000000000000000000, -0.000000000000000000, 1.000000000000000000 ) ) ;
#74 = EDGE_CURVE ( 'NONE', #228, #304, #628, .T. ) ;
#75 = DIRECTION ( 'NONE',  ( 1.000000000000000000, 0.000000000000000000, 0.000000000000000000 ) ) ;
#76 = ORIENTED_EDGE ( 'NONE', *, *, #72, .F. ) ;
#77 = ORIENTED_EDGE ( 'NONE', *, *, #554, .F. ) ;
#78 = DIRECTION ( 'NONE',  ( -0.9063077870366527122, 0.4226182617406933906, 0.000000000000000000 ) ) ;
#79 = ORIENTED_EDGE ( 'NONE', *, *, #427, .F. ) ;
#80 = VERTEX_POINT ( 'NONE', #97 ) ;
#81 = ORIENTED_EDGE ( 'NONE', *, *, #333, .F. ) ;
#82 = CYLINDRICAL_SURFACE ( 'NONE', #249, 3.000000000000001776 ) ;
#83 = DIRECTION ( 'NONE',  ( -0.8987940462991662605, -0.4383711467890789026, -0.000000000000000000 ) ) ;
#84 = DIRECTION ( 'NONE',  ( -0.000000000000000000, -0.000000000000000000, -1.000000000000000000 ) ) ;
#85 = CIRCLE ( 'NONE', #51, 3.000000000000002220 ) ;
#86 = CARTESIAN_POINT ( 'NONE',  ( -176.1140227220807617, 39.87467497228251290, 0.000000000000000000 ) ) ;
#87 = CYLINDRICAL_SURFACE ( 'NONE', #399, 2.999999999999998668 ) ;
#88 = CARTESIAN_POINT ( 'NONE',  ( 15.56387139233783756, 136.7000362609869626, -1.181050573186238406 ) ) ;
#89 = VERTEX_POINT ( 'NONE', #233 ) ;
#90 = CARTESIAN_POINT ( 'NONE',  ( 12.23810781214888799, 144.8711328014169339, 0.000000000000000000 ) ) ;
#91 = AXIS2_PLACEMENT_3D ( 'NONE', #763, #6, #317 ) ;
#92 = AXIS2_PLACEMENT_3D ( 'NONE', #429, #268, #517 ) ;
#93 = ORIENTED_EDGE ( 'NONE', *, *, #491, .T. ) ;
#94 = FACE_OUTER_BOUND ( 'NONE', #203, .T. ) ;
#95 = DIRECTION ( 'NONE',  ( 1.000000000000000000, 0.000000000000000000, 0.000000000000000000 ) ) ;
#96 = CIRCLE ( 'NONE', #672, 2.999999999999998668 ) ;
#97 = CARTESIAN_POINT ( 'NONE',  ( -2.999999999999993783, 159.3720573940034342, 0.000000000000000000 ) ) ;
#98 = DIRECTION ( 'NONE',  ( 0.000000000000000000, 0.000000000000000000, -1.000000000000000000 ) ) ;
#99 = LINE ( 'NONE', #13, #606 ) ;
#100 = CARTESIAN_POINT ( 'NONE',  ( 1.040834085586084257E-14, 208.0000000000000568, 0.000000000000000000 ) ) ;
#101 = AXIS2_PLACEMENT_3D ( 'NONE', #1, #10, #440 ) ;
#102 = DIRECTION ( 'NONE',  ( -0.9938079899999068267, 0.1111111111111082878, 0.000000000000000000 ) ) ;
#103 = LINE ( 'NONE', #214, #379 ) ;
#104 = DIRECTION ( 'NONE',  ( 0.4226182617406933351, 0.9063077870366527122, 0.000000000000000000 ) ) ;
#105 = CIRCLE ( 'NONE', #20, 2.999999999999995559 ) ;
#106 = APPROVAL_STATUS ( 'not_yet_approved' ) ;
#107 = ORIENTED_EDGE ( 'NONE', *, *, #339, .T. ) ;
#108 = DIRECTION ( 'NONE',  ( 0.000000000000000000, -0.000000000000000000, 1.000000000000000000 ) ) ;
#109 = ORIENTED_EDGE ( 'NONE', *, *, #355, .T. ) ;
#110 = CIRCLE ( 'NONE', #259, 2.999999999999995115 ) ;
#111 = CARTESIAN_POINT ( 'NONE',  ( 20.66316979979006874, 134.3221943623744039, 1.181050573186239516 ) ) ;
#112 = LINE ( 'NONE', #789, #383 ) ;
#113 = CIRCLE ( 'NONE', #387, 2.999999999999998668 ) ;
#114 = EDGE_CURVE ( 'NONE', #650, #122, #110, .T. ) ;
#115 = ORIENTED_EDGE ( 'NONE', *, *, #194, .T. ) ;
#116 = TOROIDAL_SURFACE ( 'NONE', #11, 26.99999999999998934, 2.999999999999998668 ) ;
#117 = DIRECTION ( 'NONE',  ( 0.9063077870366527122, -0.4226182617406936126, -0.000000000000000000 ) ) ;
#118 = CIRCLE ( 'NONE', #489, 3.000000000000000444 ) ;
#119 = ORIENTED_EDGE ( 'NONE', *, *, #751, .F. ) ;
#120 = CARTESIAN_POINT ( 'NONE',  ( 221.0917713604898722, -6.938893903907228378E-15, 0.000000000000000000 ) ) ;
#121 = CIRCLE ( 'NONE', #545, 29.99999999999998579 ) ;
#122 = VERTEX_POINT ( 'NONE', #188 ) ;
#123 = CARTESIAN_POINT ( 'NONE',  ( 53.99999999999998579, 207.9999999999999716, 0.000000000000000000 ) ) ;
#124 = ORIENTED_EDGE ( 'NONE', *, *, #302, .F. ) ;
#125 = EDGE_LOOP ( 'NONE', ( #594, #679, #226, #358 ) ) ;
#126 = DIRECTION ( 'NONE',  ( -1.000000000000000000, 5.365124152505590229E-17, -0.000000000000000000 ) ) ;
#127 = DIRECTION ( 'NONE',  ( 0.8987940462991662605, 0.4383711467890790692, 0.000000000000000000 ) ) ;
#128 = CIRCLE ( 'NONE', #760, 2.999999999999998668 ) ;
#129 = FACE_OUTER_BOUND ( 'NONE', #597, .T. ) ;
#130 = VECTOR ( 'NONE', #635, 1000.000000000000114 ) ;
#131 = DIRECTION ( 'NONE',  ( 1.000000000000000000, 0.000000000000000000, 0.000000000000000000 ) ) ;
#132 = FACE_OUTER_BOUND ( 'NONE', #305, .T. ) ;
#133 = LINE ( 'NONE', #90, #410 ) ;
#134 = LINE ( 'NONE', #19, #405 ) ;
#135 = DIRECTION ( 'NONE',  ( 0.000000000000000000, 0.000000000000000000, 1.000000000000000000 ) ) ;
#136 = FACE_OUTER_BOUND ( 'NONE', #36, .T. ) ;
#137 = VECTOR ( 'NONE', #200, 1000.000000000000114 ) ;
#138 = CYLINDRICAL_SURFACE ( 'NONE', #70, 2.999999999999998668 ) ;
#139 = CIRCLE ( 'NONE', #706, 2.999999999999998668 ) ;
#140 = DIRECTION ( 'NONE',  ( 0.000000000000000000, 1.000000000000000000, 0.000000000000000000 ) ) ;
#141 = LINE ( 'NONE', #356, #389 ) ;
#142 = DIRECTION ( 'NONE',  ( -0.4383711467890781255, 0.8987940462991665935, 0.000000000000000000 ) ) ;
#143 = LINE ( 'NONE', #512, #642 ) ;
#144 = FACE_OUTER_BOUND ( 'NONE', #613, .T. ) ;
#145 = CIRCLE ( 'NONE', #352, 2.999999999999998668 ) ;
#146 = CARTESIAN_POINT ( 'NONE',  ( -166.9082286395100994, 21.00000000000001066, 0.000000000000000000 ) ) ;
#147 = FACE_OUTER_BOUND ( 'NONE', #50, .T. ) ;
#148 = CARTESIAN_POINT ( 'NONE',  ( 20.06147233351843084, 135.5558569889396949, 0.000000000000000000 ) ) ;
#149 = AXIS2_PLACEMENT_3D ( 'NONE', #297, #28, #232 ) ;
#150 = EDGE_LOOP ( 'NONE', ( #469, #124, #66 ) ) ;
#151 = EDGE_CURVE ( 'NONE', #304, #228, #380, .T. ) ;
#152 = DIRECTION ( 'NONE',  ( 0.000000000000000000, -1.000000000000000000, 0.000000000000000000 ) ) ;
#153 = VERTEX_POINT ( 'NONE', #39 ) ;
#154 = VECTOR ( 'NONE', #548, 1000.000000000000000 ) ;
#155 = DIRECTION ( 'NONE',  ( 0.8987940462991672597, 0.4383711467890767932, 0.000000000000000000 ) ) ;
#156 = DIRECTION ( 'NONE',  ( 0.000000000000000000, -1.000000000000000000, 0.000000000000000000 ) ) ;
#157 = ORIENTED_EDGE ( 'NONE', *, *, #812, .F. ) ;
#158 =( LENGTH_UNIT ( ) NAMED_UNIT ( * ) SI_UNIT ( .MILLI., .METRE. ) );
#159 = CC_DESIGN_DATE_AND_TIME_ASSIGNMENT ( #785, #797, ( #185 ) ) ;
#160 = EDGE_CURVE ( 'NONE', #566, #321, #96, .T. ) ;
#161 = TOROIDAL_SURFACE ( 'NONE', #260, 20.99999999999998579, 2.999999999999998668 ) ;
#162 = DIRECTION ( 'NONE',  ( 0.9063077870366526012, -0.4226182617406936126, -0.000000000000000000 ) ) ;
#163 = ADVANCED_FACE ( 'NONE', ( #616 ), #116, .T. ) ;
#164 = DIRECTION ( 'NONE',  ( -0.000000000000000000, -0.000000000000000000, -1.000000000000000000 ) ) ;
#165 = ORIENTED_EDGE ( 'NONE', *, *, #114, .T. ) ;
#166 = VECTOR ( 'NONE', #361, 1000.000000000000000 ) ;
#167 = VERTEX_POINT ( 'NONE', #416 ) ;
#168 = CIRCLE ( 'NONE', #537, 3.000000000000002665 ) ;
#169 = CARTESIAN_POINT ( 'NONE',  ( -2.999999999999990674, 208.0000000000000568, 0.000000000000000000 ) ) ;
#170 = LINE ( 'NONE', #503, #712 ) ;
#171 = PLANE ( 'NONE',  #546 ) ;
#172 = DIRECTION ( 'NONE',  ( 0.9063077870366527122, -0.4226182617406936126, 0.000000000000000000 ) ) ;
#173 = ORIENTED_EDGE ( 'NONE', *, *, #444, .F. ) ;
#174 = DIRECTION ( 'NONE',  ( 1.000000000000000000, 0.000000000000000000, -0.000000000000000000 ) ) ;
#175 = CC_DESIGN_DATE_AND_TIME_ASSIGNMENT ( #716, #586, ( #508 ) ) ;
#176 = TOROIDAL_SURFACE ( 'NONE', #219, 20.99999999999998579, 2.999999999999998668 ) ;
#177 = ADVANCED_FACE ( 'NONE', ( #351 ), #359, .T. ) ;
#178 = ORIENTED_EDGE ( 'NONE', *, *, #554, .T. ) ;
#179 = ORIENTED_EDGE ( 'NONE', *, *, #491, .F. ) ;
#180 = CARTESIAN_POINT ( 'NONE',  ( 9.702398241704784709, 139.4332860791969892, 3.673940397442058389E-16 ) ) ;
#181 = DIRECTION ( 'NONE',  ( -0.000000000000000000, -0.000000000000000000, -1.000000000000000000 ) ) ;
#182 = CARTESIAN_POINT ( 'NONE',  ( -176.1140227220807617, 39.87467497228251290, 0.000000000000000000 ) ) ;
#183 = EDGE_LOOP ( 'NONE', ( #437, #93, #35, #313 ) ) ;
#184 = AXIS2_PLACEMENT_3D ( 'NONE', #17, #156, #583 ) ;
#185 = SECURITY_CLASSIFICATION ( '', '', #705 ) ;
#186 = EDGE_CURVE ( 'NONE', #464, #153, #614, .T. ) ;
#187 = DIRECTION ( 'NONE',  ( -1.000000000000000000, 0.000000000000000000, 0.000000000000000000 ) ) ;
#188 = CARTESIAN_POINT ( 'NONE',  ( 228.6989000718223224, 37.31354016665974882, 3.673940397442058389E-16 ) ) ;
#189 = CARTESIAN_POINT ( 'NONE',  ( 50.99999999999999289, 207.9999999999999716, 0.000000000000000000 ) ) ;
#190 = CARTESIAN_POINT ( 'NONE',  ( 22.56107268001511912, 133.4371877148910244, -1.000000000000000000 ) ) ;
#191 = ORIENTED_EDGE ( 'NONE', *, *, #599, .F. ) ;
#192 = LINE ( 'NONE', #413, #456 ) ;
#193 = APPROVAL ( #417, 'UNSPECIFIED' ) ;
#194 = EDGE_CURVE ( 'NONE', #122, #650, #365, .T. ) ;
#195 = ORIENTED_EDGE ( 'NONE', *, *, #151, .F. ) ;
#196 = ORIENTED_EDGE ( 'NONE', *, *, #562, .T. ) ;
#197 = EDGE_LOOP ( 'NONE', ( #32, #746, #748, #242, #286, #547, #692 ) ) ;
#198 = VERTEX_POINT ( 'NONE', #726 ) ;
#199 = ORIENTED_EDGE ( 'NONE', *, *, #74, .T. ) ;
#200 = DIRECTION ( 'NONE',  ( -0.8987940462991662605, -0.4383711467890789026, -0.000000000000000000 ) ) ;
#201 = CALENDAR_DATE ( 2023, 11, 6 ) ;
#202 = DIRECTION ( 'NONE',  ( -1.000000000000000000, 5.365124152505590229E-17, -0.000000000000000000 ) ) ;
#203 = EDGE_LOOP ( 'NONE', ( #463, #622, #278, #382 ) ) ;
#204 = COORDINATED_UNIVERSAL_TIME_OFFSET ( 5, 30, .AHEAD. ) ;
#205 = DIRECTION ( 'NONE',  ( -0.9938079899999068267, 0.1111111111111082878, 0.000000000000000000 ) ) ;
#206 = AXIS2_PLACEMENT_3D ( 'NONE', #801, #48, #102 ) ;
#207 = ORIENTED_EDGE ( 'NONE', *, *, #577, .T. ) ;
#208 = ORIENTED_EDGE ( 'NONE', *, *, #21, .T. ) ;
#209 = DIRECTION ( 'NONE',  ( -1.000000000000000000, 0.000000000000000000, 0.000000000000000000 ) ) ;
#210 = EDGE_CURVE ( 'NONE', #290, #711, #57, .T. ) ;
#211 = APPROVAL_PERSON_ORGANIZATION ( #738, #461, #728 ) ;
#212 = CARTESIAN_POINT ( 'NONE',  ( -177.4291361624479748, 42.57105711117999647, 0.000000000000000000 ) ) ;
#213 = ORIENTED_EDGE ( 'NONE', *, *, #646, .T. ) ;
#214 = CARTESIAN_POINT ( 'NONE',  ( 221.0917713604898154, 2.999999999999992006, 3.673940397442058389E-16 ) ) ;
#215 = ORIENTED_EDGE ( 'NONE', *, *, #339, .F. ) ;
#216 = ADVANCED_FACE ( 'NONE', ( #94 ), #138, .T. ) ;
#217 = CARTESIAN_POINT ( 'NONE',  ( 17.01930799597656474, 136.7127376638047451, -2.182172965387709773 ) ) ;
#218 = DESIGN_CONTEXT ( 'detailed design', #328, 'design' ) ;
#219 = AXIS2_PLACEMENT_3D ( 'NONE', #68, #369, #432 ) ;
#220 = ADVANCED_FACE ( 'NONE', ( #144 ), #565, .F. ) ;
#221 = PERSON_AND_ORGANIZATION ( #451, #474 ) ;
#222 = ORIENTED_EDGE ( 'NONE', *, *, #708, .F. ) ;
#223 = EDGE_LOOP ( 'NONE', ( #702, #178, #179, #700, #742 ) ) ;
#224 = CARTESIAN_POINT ( 'NONE',  ( 231.2346096422664630, 42.75138688887966509, 0.000000000000000000 ) ) ;
#225 =( BOUNDED_CURVE ( )  B_SPLINE_CURVE ( 3, ( #277, #235, #483, #704 ),
 .UNSPECIFIED., .F., .F. ) 
 B_SPLINE_CURVE_WITH_KNOTS ( ( 4, 4 ),
 ( 0.000000000000000000, 1.118496741626374913 ),
 .UNSPECIFIED. ) 
 CURVE ( )  GEOMETRIC_REPRESENTATION_ITEM ( )  RATIONAL_B_SPLINE_CURVE ( ( 1.000000000000000000, 0.8984360844659644574, 0.8984360844659644574, 1.000000000000000000 ) ) 
 REPRESENTATION_ITEM ( '' )  );
#226 = ORIENTED_EDGE ( 'NONE', *, *, #62, .T. ) ;
#227 =( BOUNDED_CURVE ( )  B_SPLINE_CURVE ( 3, ( #516, #217, #88, #588 ),
 .UNSPECIFIED., .F., .F. ) 
 B_SPLINE_CURVE_WITH_KNOTS ( ( 4, 4 ),
 ( 2.023095911963419091, 3.141592653589793116 ),
 .UNSPECIFIED. ) 
 CURVE ( )  GEOMETRIC_REPRESENTATION_ITEM ( )  RATIONAL_B_SPLINE_CURVE ( ( 1.000000000000000000, 0.8984360844659646794, 0.8984360844659646794, 1.000000000000000000 ) ) 
 REPRESENTATION_ITEM ( '' )  );
#228 = VERTEX_POINT ( 'NONE', #572 ) ;
#229 = CARTESIAN_POINT ( 'NONE',  ( 20.06147233351843084, 135.5558569889396949, 0.000000000000000000 ) ) ;
#230 = EDGE_CURVE ( 'NONE', #650, #153, #665, .T. ) ;
#231 = ORIENTED_EDGE ( 'NONE', *, *, #186, .T. ) ;
#232 = DIRECTION ( 'NONE',  ( -1.000000000000000000, 0.000000000000000000, 0.000000000000000000 ) ) ;
#233 = CARTESIAN_POINT ( 'NONE',  ( -166.9082286395100425, -2.999999999999984901, 0.000000000000000000 ) ) ;
#234 = LOCAL_TIME ( 23, 1, 4.000000000000000000, #756 ) ;
#235 = CARTESIAN_POINT ( 'NONE',  ( 20.66316979979006874, 134.3221943623744039, -1.181050573186239516 ) ) ;
#236 = DIRECTION ( 'NONE',  ( -0.4383711467890781255, 0.8987940462991665935, 0.000000000000000000 ) ) ;
#237 = ORIENTED_EDGE ( 'NONE', *, *, #812, .T. ) ;
#238 = DIRECTION ( 'NONE',  ( 0.000000000000000000, -1.000000000000000000, 0.000000000000000000 ) ) ;
#239 = CALENDAR_DATE ( 2023, 11, 6 ) ;
#240 = CALENDAR_DATE ( 2023, 11, 6 ) ;
#241 = AXIS2_PLACEMENT_3D ( 'NONE', #315, #793, #295 ) ;
#242 = ORIENTED_EDGE ( 'NONE', *, *, #194, .F. ) ;
#243 = DIRECTION ( 'NONE',  ( 0.000000000000000000, -1.000000000000000000, 0.000000000000000000 ) ) ;
#244 = VERTEX_POINT ( 'NONE', #16 ) ;
#245 = DIRECTION ( 'NONE',  ( 0.9063077870366528233, -0.4226182617406933906, 0.000000000000000000 ) ) ;
#246 = DATE_AND_TIME ( #478, #744 ) ;
#247 = APPROVAL_DATE_TIME ( #487, #645 ) ;
#248 = CARTESIAN_POINT ( 'NONE',  ( 1.077573489560504801E-14, 208.0000000000000568, 2.999999999999998668 ) ) ;
#249 = AXIS2_PLACEMENT_3D ( 'NONE', #56, #127, #347 ) ;
#250 = CARTESIAN_POINT ( 'NONE',  ( 229.9667548570444069, 40.03246352776972117, 0.000000000000000000 ) ) ;
#251 = EDGE_CURVE ( 'NONE', #570, #198, #667, .T. ) ;
#252 = CARTESIAN_POINT ( 'NONE',  ( 3.000000000000009326, 159.3720573940034342, -3.673940397442063812E-16 ) ) ;
#253 = COORDINATED_UNIVERSAL_TIME_OFFSET ( 5, 30, .AHEAD. ) ;
#254 = CARTESIAN_POINT ( 'NONE',  ( 10.97025302692686211, 142.1522094403069616, 0.000000000000000000 ) ) ;
#255 = DIRECTION ( 'NONE',  ( 0.000000000000000000, 0.000000000000000000, 1.000000000000000000 ) ) ;
#256 = PERSON_AND_ORGANIZATION ( #451, #474 ) ;
#257 = DIRECTION ( 'NONE',  ( 0.000000000000000000, 0.000000000000000000, 1.000000000000000000 ) ) ;
#258 = CARTESIAN_POINT ( 'NONE',  ( 1.040834085586084257E-14, 208.0000000000000568, 0.000000000000000000 ) ) ;
#259 = AXIS2_PLACEMENT_3D ( 'NONE', #250, #303, #590 ) ;
#260 = AXIS2_PLACEMENT_3D ( 'NONE', #506, #557, #187 ) ;
#261 = EDGE_LOOP ( 'NONE', ( #471, #107, #482, #453, #567 ) ) ;
#262 = CARTESIAN_POINT ( 'NONE',  ( 9.702398241704726090, 139.4332860791970177, 3.673940397442058389E-16 ) ) ;
#263 = ORIENTED_EDGE ( 'NONE', *, *, #160, .T. ) ;
#264 = ADVANCED_FACE ( 'NONE', ( #132 ), #641, .T. ) ;
#265 = AXIS2_PLACEMENT_3D ( 'NONE', #22, #34, #98 ) ;
#266 = EDGE_CURVE ( 'NONE', #244, #80, #388, .T. ) ;
#267 = EDGE_LOOP ( 'NONE', ( #77, #199, #757, #593, #720 ) ) ;
#268 = DIRECTION ( 'NONE',  ( 0.9063077870366527122, -0.4226182617406936126, -0.000000000000000000 ) ) ;
#269 = CARTESIAN_POINT ( 'NONE',  ( 12.23810781214894305, 144.8711328014169055, 0.000000000000000000 ) ) ;
#270 = EDGE_CURVE ( 'NONE', #604, #385, #121, .T. ) ;
#271 = EDGE_LOOP ( 'NONE', ( #364, #272, #46, #4, #279 ) ) ;
#272 = ORIENTED_EDGE ( 'NONE', *, *, #333, .T. ) ;
#273 = ADVANCED_FACE ( 'NONE', ( #129 ), #766, .T. ) ;
#274 = EDGE_CURVE ( 'NONE', #414, #477, #499, .T. ) ;
#275 = ORIENTED_EDGE ( 'NONE', *, *, #526, .F. ) ;
#276 = ORIENTED_EDGE ( 'NONE', *, *, #633, .T. ) ;
#277 = CARTESIAN_POINT ( 'NONE',  ( 20.66316979979006163, 134.3221943623744039, 3.673940397442058389E-16 ) ) ;
#278 = ORIENTED_EDGE ( 'NONE', *, *, #355, .F. ) ;
#279 = ORIENTED_EDGE ( 'NONE', *, *, #539, .F. ) ;
#280 = CARTESIAN_POINT ( 'NONE',  ( -166.9082286395100425, 1.387778780781445676E-14, 0.000000000000000000 ) ) ;
#281 = ADVANCED_BREP_SHAPE_REPRESENTATION ( 'COAT HANGER', ( #515, #569, #27 ), #673 ) ;
#282 = PERSON_AND_ORGANIZATION_ROLE ( 'classification_officer' ) ;
#283 = AXIS2_PLACEMENT_3D ( 'NONE', #750, #372, #675 ) ;
#284 = AXIS2_PLACEMENT_3D ( 'NONE', #258, #529, #651 ) ;
#285 = CARTESIAN_POINT ( 'NONE',  ( 22.56107268001511912, 133.4371877148910244, 1.000000000000000000 ) ) ;
#286 = ORIENTED_EDGE ( 'NONE', *, *, #621, .F. ) ;
#287 = DIRECTION ( 'NONE',  ( 1.000000000000000000, 0.000000000000000000, 0.000000000000000000 ) ) ;
#288 = VERTEX_POINT ( 'NONE', #269 ) ;
#289 = CARTESIAN_POINT ( 'NONE',  ( 221.0917713604898438, 21.00000000000000000, 0.000000000000000000 ) ) ;
#290 = VERTEX_POINT ( 'NONE', #324 ) ;
#291 = DIRECTION ( 'NONE',  ( -0.4383711467890744617, 0.8987940462991684809, 0.000000000000000000 ) ) ;
#292 = CC_DESIGN_PERSON_AND_ORGANIZATION_ASSIGNMENT ( #725, #643, ( #775 ) ) ;
#293 = EDGE_CURVE ( 'NONE', #89, #536, #634, .T. ) ;
#294 = DIRECTION ( 'NONE',  ( -1.000000000000000000, 0.000000000000000000, 0.000000000000000000 ) ) ;
#295 = DIRECTION ( 'NONE',  ( -1.000000000000000000, 0.000000000000000000, 0.000000000000000000 ) ) ;
#296 = CARTESIAN_POINT ( 'NONE',  ( 15.56387139233782868, 136.7000362609869626, 3.673940397442058389E-16 ) ) ;
#297 = CARTESIAN_POINT ( 'NONE',  ( -166.9082286395100994, 21.00000000000001066, 0.000000000000000000 ) ) ;
#298 = CARTESIAN_POINT ( 'NONE',  ( -166.9082286395100425, 3.000000000000012879, 3.673940397442071208E-16 ) ) ;
#299 = AXIS2_PLACEMENT_3D ( 'NONE', #623, #695, #755 ) ;
#300 = APPROVAL_STATUS ( 'not_yet_approved' ) ;
#301 = CC_DESIGN_APPROVAL ( #645, ( #185 ) ) ;
#302 = EDGE_CURVE ( 'NONE', #52, #731, #99, .T. ) ;
#303 = DIRECTION ( 'NONE',  ( 0.9063077870366527122, -0.4226182617406936126, 0.000000000000000000 ) ) ;
#304 = VERTEX_POINT ( 'NONE', #212 ) ;
#305 = EDGE_LOOP ( 'NONE', ( #67, #610, #759, #195 ) ) ;
#306 = CARTESIAN_POINT ( 'NONE',  ( 53.99999999999998579, 207.9999999999999716, 0.000000000000000000 ) ) ;
#307 = EDGE_LOOP ( 'NONE', ( #683, #311, #314, #173, #79 ) ) ;
#308 = CARTESIAN_POINT ( 'NONE',  ( 53.99999999999998579, 207.9999999999999716, 0.000000000000000000 ) ) ;
#309 = DIRECTION ( 'NONE',  ( -1.000000000000000000, 0.000000000000000000, 0.000000000000000000 ) ) ;
#310 = EDGE_LOOP ( 'NONE', ( #371, #329, #349, #631 ) ) ;
#311 = ORIENTED_EDGE ( 'NONE', *, *, #270, .T. ) ;
#312 = EDGE_CURVE ( 'NONE', #419, #288, #118, .T. ) ;
#313 = ORIENTED_EDGE ( 'NONE', *, *, #800, .F. ) ;
#314 = ORIENTED_EDGE ( 'NONE', *, *, #322, .F. ) ;
#315 = CARTESIAN_POINT ( 'NONE',  ( 53.99999999999998579, 207.9999999999999716, 0.000000000000000000 ) ) ;
#316 = DIRECTION ( 'NONE',  ( 0.9063077870366526012, -0.4226182617406936126, -0.000000000000000000 ) ) ;
#317 = DIRECTION ( 'NONE',  ( -1.000000000000000000, 0.000000000000000000, 0.000000000000000000 ) ) ;
#318 = DIRECTION ( 'NONE',  ( -0.000000000000000000, -0.000000000000000000, -1.000000000000000000 ) ) ;
#319 = CLOSED_SHELL ( 'NONE', ( #220, #694, #556, #18, #500 ) ) ;
#320 = AXIS2_PLACEMENT_3D ( 'NONE', #38, #164, #294 ) ;
#321 = VERTEX_POINT ( 'NONE', #779 ) ;
#322 = EDGE_CURVE ( 'NONE', #442, #385, #374, .T. ) ;
#323 = CARTESIAN_POINT ( 'NONE',  ( 20.06147233351843084, 135.5558569889396949, 0.000000000000000000 ) ) ;
#324 = CARTESIAN_POINT ( 'NONE',  ( 19.48672168242269720, 136.7342704568314673, 2.698333446362073396 ) ) ;
#325 = ORIENTED_EDGE ( 'NONE', *, *, #721, .F. ) ;
#326 = ADVANCED_FACE ( 'NONE', ( #603 ), #87, .T. ) ;
#327 = AXIS2_PLACEMENT_3D ( 'NONE', #323, #445, #682 ) ;
#328 = APPLICATION_CONTEXT ( 'configuration controlled 3d designs of mechanical parts and assemblies' ) ;
#329 = ORIENTED_EDGE ( 'NONE', *, *, #740, .F. ) ;
#330 = LINE ( 'NONE', #510, #605 ) ;
#331 = PRODUCT_RELATED_PRODUCT_CATEGORY ( 'detail', '', ( #775 ) ) ;
#332 = DIRECTION ( 'NONE',  ( -1.000000000000000000, 5.551115123125782702E-17, 0.000000000000000000 ) ) ;
#333 = EDGE_CURVE ( 'NONE', #604, #24, #105, .T. ) ;
#334 =( NAMED_UNIT ( * ) PLANE_ANGLE_UNIT ( ) SI_UNIT ( $, .RADIAN. ) );
#335 = EDGE_LOOP ( 'NONE', ( #475, #207, #341, #619 ) ) ;
#336 = LINE ( 'NONE', #439, #584 ) ;
#337 = DIRECTION ( 'NONE',  ( 0.8987940462991663715, 0.4383711467890791247, 0.000000000000000000 ) ) ;
#338 = ORIENTED_EDGE ( 'NONE', *, *, #29, .F. ) ;
#339 = EDGE_CURVE ( 'NONE', #80, #419, #366, .T. ) ;
#340 = DIRECTION ( 'NONE',  ( -0.000000000000000000, -0.000000000000000000, -1.000000000000000000 ) ) ;
#341 = ORIENTED_EDGE ( 'NONE', *, *, #74, .F. ) ;
#342 = TOROIDAL_SURFACE ( 'NONE', #644, 21.00000000000000355, 2.999999999999998668 ) ;
#343 = FACE_OUTER_BOUND ( 'NONE', #335, .T. ) ;
#344 = FACE_OUTER_BOUND ( 'NONE', #223, .T. ) ;
#345 = EDGE_LOOP ( 'NONE', ( #608, #165, #196, #455 ) ) ;
#346 = FACE_OUTER_BOUND ( 'NONE', #473, .T. ) ;
#347 = DIRECTION ( 'NONE',  ( -0.4383711467890828439, 0.8987940462991643731, 0.000000000000000000 ) ) ;
#348 = VERTEX_POINT ( 'NONE', #664 ) ;
#349 = ORIENTED_EDGE ( 'NONE', *, *, #251, .F. ) ;
#350 = AXIS2_PLACEMENT_3D ( 'NONE', #658, #117, #104 ) ;
#351 = FACE_OUTER_BOUND ( 'NONE', #197, .T. ) ;
#352 = AXIS2_PLACEMENT_3D ( 'NONE', #794, #495, #367 ) ;
#353 = CIRCLE ( 'NONE', #44, 2.999999999999998668 ) ;
#354 = DIRECTION ( 'NONE',  ( -1.000000000000000000, 0.000000000000000000, 0.000000000000000000 ) ) ;
#355 = EDGE_CURVE ( 'NONE', #89, #40, #615, .T. ) ;
#356 = CARTESIAN_POINT ( 'NONE',  ( -174.7989092817134917, 37.17829283338500801, 3.673940397442058882E-16 ) ) ;
#357 = CARTESIAN_POINT ( 'NONE',  ( 79.25580469341009859, 107.0000000000000426, -1.000000000000000000 ) ) ;
#358 = ORIENTED_EDGE ( 'NONE', *, *, #511, .F. ) ;
#359 = CYLINDRICAL_SURFACE ( 'NONE', #350, 3.000000000000001332 ) ;
#360 = FACE_OUTER_BOUND ( 'NONE', #563, .T. ) ;
#361 = DIRECTION ( 'NONE',  ( -0.000000000000000000, -1.000000000000000000, -0.000000000000000000 ) ) ;
#362 = CARTESIAN_POINT ( 'NONE',  ( 1.040834085586084257E-14, 208.0000000000000568, 0.000000000000000000 ) ) ;
#363 = AXIS2_PLACEMENT_3D ( 'NONE', #448, #618, #689 ) ;
#364 = ORIENTED_EDGE ( 'NONE', *, *, #270, .F. ) ;
#365 = CIRCLE ( 'NONE', #434, 2.999999999999995115 ) ;
#366 = CIRCLE ( 'NONE', #559, 21.99999999999999289 ) ;
#367 = DIRECTION ( 'NONE',  ( 0.000000000000000000, 0.000000000000000000, -1.000000000000000000 ) ) ;
#368 = EDGE_CURVE ( 'NONE', #153, #464, #620, .T. ) ;
#369 = DIRECTION ( 'NONE',  ( -0.000000000000000000, -0.000000000000000000, -1.000000000000000000 ) ) ;
#370 = DIRECTION ( 'NONE',  ( 0.000000000000000000, 0.000000000000000000, -1.000000000000000000 ) ) ;
#371 = ORIENTED_EDGE ( 'NONE', *, *, #690, .T. ) ;
#372 = DIRECTION ( 'NONE',  ( -1.000000000000000000, 5.365124152505590229E-17, -0.000000000000000000 ) ) ;
#373 = ADVANCED_FACE ( 'NONE', ( #624 ), #342, .T. ) ;
#374 = CIRCLE ( 'NONE', #184, 2.999999999999998668 ) ;
#375 = EDGE_CURVE ( 'NONE', #477, #504, #227, .T. ) ;
#376 = CIRCLE ( 'NONE', #320, 18.00000000000001421 ) ;
#377 = ORIENTED_EDGE ( 'NONE', *, *, #736, .T. ) ;
#378 = DIRECTION ( 'NONE',  ( -0.000000000000000000, -0.000000000000000000, -1.000000000000000000 ) ) ;
#379 = VECTOR ( 'NONE', #696, 1000.000000000000000 ) ;
#380 = CIRCLE ( 'NONE', #59, 2.999999999999996003 ) ;
#381 = DIRECTION ( 'NONE',  ( -1.000000000000000000, 0.000000000000000000, 0.000000000000000000 ) ) ;
#382 = ORIENTED_EDGE ( 'NONE', *, *, #21, .F. ) ;
#383 = VECTOR ( 'NONE', #730, 1000.000000000000227 ) ;
#384 = SPHERICAL_SURFACE ( 'NONE', #206, 3.000000000000000000 ) ;
#385 = VERTEX_POINT ( 'NONE', #169 ) ;
#386 = VECTOR ( 'NONE', #131, 1000.000000000000000 ) ;
#387 = AXIS2_PLACEMENT_3D ( 'NONE', #501, #669, #747 ) ;
#388 = CIRCLE ( 'NONE', #783, 2.999999999999998668 ) ;
#389 = VECTOR ( 'NONE', #657, 1000.000000000000000 ) ;
#390 = VERTEX_POINT ( 'NONE', #252 ) ;
#391 = EDGE_CURVE ( 'NONE', #8, #536, #145, .T. ) ;
#392 = FACE_OUTER_BOUND ( 'NONE', #125, .T. ) ;
#393 = CARTESIAN_POINT ( 'NONE',  ( -31.64319485237861329, 107.0000000000000426, 1.000000000000000000 ) ) ;
#394 = CIRCLE ( 'NONE', #149, 23.99999999999999289 ) ;
#395 = LINE ( 'NONE', #262, #637 ) ;
#396 = TOROIDAL_SURFACE ( 'NONE', #629, 21.00000000000000355, 2.999999999999998668 ) ;
#397 = CIRCLE ( 'NONE', #443, 2.999999999999995559 ) ;
#398 = CIRCLE ( 'NONE', #424, 2.999999999999998668 ) ;
#399 = AXIS2_PLACEMENT_3D ( 'NONE', #100, #656, #578 ) ;
#400 = AXIS2_PLACEMENT_3D ( 'NONE', #769, #318, #753 ) ;
#401 = LINE ( 'NONE', #393, #137 ) ;
#402 = CIRCLE ( 'NONE', #284, 2.999999999999998668 ) ;
#403 = CYLINDRICAL_SURFACE ( 'NONE', #101, 3.000000000000001776 ) ;
#404 = DIRECTION ( 'NONE',  ( 0.000000000000000000, -1.000000000000000000, 0.000000000000000000 ) ) ;
#405 = VECTOR ( 'NONE', #454, 1000.000000000000000 ) ;
#406 = CC_DESIGN_APPROVAL ( #461, ( #519 ) ) ;
#407 = EDGE_CURVE ( 'NONE', #198, #555, #112, .T. ) ;
#408 = PERSON_AND_ORGANIZATION_ROLE ( 'creator' ) ;
#409 = DIRECTION ( 'NONE',  ( -1.000000000000000000, 0.000000000000000000, 0.000000000000000000 ) ) ;
#410 = VECTOR ( 'NONE', #162, 1000.000000000000114 ) ;
#411 = DIRECTION ( 'NONE',  ( -1.000000000000000000, 0.000000000000000000, 0.000000000000000000 ) ) ;
#412 = TOROIDAL_SURFACE ( 'NONE', #43, 18.99999999999998934, 2.999999999999998668 ) ;
#413 = CARTESIAN_POINT ( 'NONE',  ( -31.64319485237861329, 107.0000000000000426, -1.000000000000000000 ) ) ;
#414 = VERTEX_POINT ( 'NONE', #484 ) ;
#415 = DIRECTION ( 'NONE',  ( -0.000000000000000000, -0.000000000000000000, -1.000000000000000000 ) ) ;
#416 = CARTESIAN_POINT ( 'NONE',  ( 53.66666666666665719, 205.0185760300002187, 0.000000000000000000 ) ) ;
#417 = APPROVAL_STATUS ( 'not_yet_approved' ) ;
#418 = DIRECTION ( 'NONE',  ( -0.000000000000000000, -0.000000000000000000, -1.000000000000000000 ) ) ;
#419 = VERTEX_POINT ( 'NONE', #180 ) ;
#420 = CARTESIAN_POINT ( 'NONE',  ( -166.9082286395100994, 21.00000000000001066, 3.673940397442058389E-16 ) ) ;
#421 = FACE_OUTER_BOUND ( 'NONE', #772, .T. ) ;
#422 = APPLICATION_PROTOCOL_DEFINITION ( 'international standard', 'config_control_design', 1994, #328 ) ;
#423 = AXIS2_PLACEMENT_3D ( 'NONE', #120, #799, #243 ) ;
#424 = AXIS2_PLACEMENT_3D ( 'NONE', #479, #238, #527 ) ;
#425 = CIRCLE ( 'NONE', #717, 15.99999999999998579 ) ;
#426 = DIRECTION ( 'NONE',  ( 0.000000000000000000, 0.000000000000000000, 1.000000000000000000 ) ) ;
#427 = EDGE_CURVE ( 'NONE', #24, #321, #639, .T. ) ;
#428 = LINE ( 'NONE', #447, #166 ) ;
#429 = CARTESIAN_POINT ( 'NONE',  ( 10.97025302692680704, 142.1522094403069900, 0.000000000000000000 ) ) ;
#430 = CARTESIAN_POINT ( 'NONE',  ( 26.99999999999999645, 208.0000000000000000, 0.000000000000000000 ) ) ;
#431 = DIRECTION ( 'NONE',  ( 1.000000000000000000, 0.000000000000000000, 0.000000000000000000 ) ) ;
#432 = DIRECTION ( 'NONE',  ( -1.000000000000000000, 0.000000000000000000, 0.000000000000000000 ) ) ;
#433 = DIRECTION ( 'NONE',  ( 0.4226182617406896158, 0.9063077870366545996, 0.000000000000000000 ) ) ;
#434 = AXIS2_PLACEMENT_3D ( 'NONE', #549, #172, #433 ) ;
#435 = CC_DESIGN_APPROVAL ( #193, ( #508 ) ) ;
#436 = FACE_OUTER_BOUND ( 'NONE', #573, .T. ) ;
#437 = ORIENTED_EDGE ( 'NONE', *, *, #210, .F. ) ;
#438 = EDGE_LOOP ( 'NONE', ( #115, #540, #798, #737 ) ) ;
#439 = CARTESIAN_POINT ( 'NONE',  ( -31.64319485237861329, 107.0000000000000426, 1.000000000000000000 ) ) ;
#440 = DIRECTION ( 'NONE',  ( -0.4383711467890828439, 0.8987940462991643731, 0.000000000000000000 ) ) ;
#441 = AXIS2_PLACEMENT_3D ( 'NONE', #486, #309, #498 ) ;
#442 = VERTEX_POINT ( 'NONE', #248 ) ;
#443 = AXIS2_PLACEMENT_3D ( 'NONE', #123, #773, #381 ) ;
#444 = EDGE_CURVE ( 'NONE', #321, #442, #113, .T. ) ;
#445 = DIRECTION ( 'NONE',  ( 0.8987940462991662605, 0.4383711467890790137, 0.000000000000000000 ) ) ;
#446 = ADVANCED_FACE ( 'NONE', ( #344 ), #82, .T. ) ;
#447 = CARTESIAN_POINT ( 'NONE',  ( 1.077573489560504801E-14, 208.0000000000000568, 2.999999999999998668 ) ) ;
#448 = CARTESIAN_POINT ( 'NONE',  ( -166.9082286395100994, 21.00000000000001066, 0.000000000000000000 ) ) ;
#449 = DATE_AND_TIME ( #452, #465 ) ;
#450 = LOCAL_TIME ( 23, 1, 4.000000000000000000, #734 ) ;
#451 = PERSON ( 'UNSPECIFIED', 'UNSPECIFIED', 'UNSPECIFIED', ('UNSPECIFIED'), ('UNSPECIFIED'), ('UNSPECIFIED') ) ;
#452 = CALENDAR_DATE ( 2023, 11, 6 ) ;
#453 = ORIENTED_EDGE ( 'NONE', *, *, #764, .F. ) ;
#454 = DIRECTION ( 'NONE',  ( -0.000000000000000000, -0.000000000000000000, -1.000000000000000000 ) ) ;
#455 = ORIENTED_EDGE ( 'NONE', *, *, #368, .F. ) ;
#456 = VECTOR ( 'NONE', #83, 1000.000000000000114 ) ;
#457 = CARTESIAN_POINT ( 'NONE',  ( 0.000000000000000000, 0.000000000000000000, 0.000000000000000000 ) ) ;
#458 = CARTESIAN_POINT ( 'NONE',  ( 26.99999999999999645, 208.0000000000000000, 0.000000000000000000 ) ) ;
#459 = ORIENTED_EDGE ( 'NONE', *, *, #520, .F. ) ;
#460 = CARTESIAN_POINT ( 'NONE',  ( 56.99999999999997868, 207.9999999999999716, 3.651191321761350419E-16 ) ) ;
#461 = APPROVAL ( #300, 'UNSPECIFIED' ) ;
#462 = COORDINATED_UNIVERSAL_TIME_OFFSET ( 5, 30, .AHEAD. ) ;
#463 = ORIENTED_EDGE ( 'NONE', *, *, #368, .T. ) ;
#464 = VERTEX_POINT ( 'NONE', #488 ) ;
#465 = LOCAL_TIME ( 23, 1, 4.000000000000000000, #462 ) ;
#466 = AXIS2_PLACEMENT_3D ( 'NONE', #7, #73, #205 ) ;
#467 = VERTEX_POINT ( 'NONE', #37 ) ;
#468 = ORIENTED_EDGE ( 'NONE', *, *, #33, .T. ) ;
#469 = ORIENTED_EDGE ( 'NONE', *, *, #791, .F. ) ;
#470 = DIRECTION ( 'NONE',  ( -1.000000000000000000, 0.000000000000000000, 0.000000000000000000 ) ) ;
#471 = ORIENTED_EDGE ( 'NONE', *, *, #266, .T. ) ;
#472 = APPLICATION_PROTOCOL_DEFINITION ( 'international standard', 'config_control_design', 1994, #571 ) ;
#473 = EDGE_LOOP ( 'NONE', ( #767, #581, #496 ) ) ;
#474 = ORGANIZATION ( 'UNSPECIFIED', 'UNSPECIFIED', '' ) ;
#475 = ORIENTED_EDGE ( 'NONE', *, *, #62, .F. ) ;
#476 = CARTESIAN_POINT ( 'NONE',  ( 19.48672168242269720, 136.7342704568314673, -2.698333446362073396 ) ) ;
#477 = VERTEX_POINT ( 'NONE', #476 ) ;
#478 = CALENDAR_DATE ( 2023, 11, 6 ) ;
#479 = CARTESIAN_POINT ( 'NONE',  ( 1.040834085586084257E-14, 159.3720573940034342, 0.000000000000000000 ) ) ;
#480 = AXIS2_PLACEMENT_3D ( 'NONE', #810, #685, #768 ) ;
#481 = DIRECTION ( 'NONE',  ( 0.000000000000000000, -1.000000000000000000, 0.000000000000000000 ) ) ;
#482 = ORIENTED_EDGE ( 'NONE', *, *, #687, .F. ) ;
#483 = CARTESIAN_POINT ( 'NONE',  ( 20.22668981057760007, 135.2171109610292206, -2.182172965387711550 ) ) ;
#484 = CARTESIAN_POINT ( 'NONE',  ( 21.37658577388567949, 132.8594748500421758, 3.673940397442058882E-16 ) ) ;
#485 = CARTESIAN_POINT ( 'NONE',  ( 15.56387139233782868, 136.7000362609869626, 3.673940397442058389E-16 ) ) ;
#486 = CARTESIAN_POINT ( 'NONE',  ( 221.0917713604898722, -6.938893903907228378E-15, 0.000000000000000000 ) ) ;
#487 = DATE_AND_TIME ( #239, #782 ) ;
#488 = CARTESIAN_POINT ( 'NONE',  ( 221.0917713604898722, 2.999999999999992006, 3.673940397442058389E-16 ) ) ;
#489 = AXIS2_PLACEMENT_3D ( 'NONE', #787, #41, #697 ) ;
#490 = CC_DESIGN_PERSON_AND_ORGANIZATION_ASSIGNMENT ( #732, #408, ( #508 ) ) ;
#491 = EDGE_CURVE ( 'NONE', #290, #414, #85, .T. ) ;
#492 = DIRECTION ( 'NONE',  ( 1.000000000000000000, 0.000000000000000000, 0.000000000000000000 ) ) ;
#493 = ORIENTED_EDGE ( 'NONE', *, *, #526, .T. ) ;
#494 = ORIENTED_EDGE ( 'NONE', *, *, #708, .T. ) ;
#495 = DIRECTION ( 'NONE',  ( 0.000000000000000000, -1.000000000000000000, 0.000000000000000000 ) ) ;
#496 = ORIENTED_EDGE ( 'NONE', *, *, #407, .T. ) ;
#497 = CARTESIAN_POINT ( 'NONE',  ( 20.66316979979006163, 134.3221943623744039, 3.673940397442058389E-16 ) ) ;
#498 = DIRECTION ( 'NONE',  ( 0.000000000000000000, -1.000000000000000000, 0.000000000000000000 ) ) ;
#499 = CIRCLE ( 'NONE', #535, 3.000000000000002220 ) ;
#500 = ADVANCED_FACE ( 'NONE', ( #630 ), #534, .F. ) ;
#501 = CARTESIAN_POINT ( 'NONE',  ( 1.040834085586084257E-14, 208.0000000000000568, 0.000000000000000000 ) ) ;
#502 = ORIENTED_EDGE ( 'NONE', *, *, #312, .F. ) ;
#503 = CARTESIAN_POINT ( 'NONE',  ( -177.4291361624479748, 42.57105711117999647, 0.000000000000000000 ) ) ;
#504 = VERTEX_POINT ( 'NONE', #296 ) ;
#505 = APPROVAL_PERSON_ORGANIZATION ( #509, #645, #23 ) ;
#506 = CARTESIAN_POINT ( 'NONE',  ( -166.9082286395100994, 21.00000000000001066, 0.000000000000000000 ) ) ;
#507 = AXIS2_PLACEMENT_3D ( 'NONE', #739, #53, #713 ) ;
#508 = PRODUCT_DEFINITION ( 'UNKNOWN', '', #519, #218 ) ;
#509 = PERSON_AND_ORGANIZATION ( #451, #474 ) ;
#510 = CARTESIAN_POINT ( 'NONE',  ( 221.0917713604898154, -3.000000000000005773, 0.000000000000000000 ) ) ;
#511 = EDGE_CURVE ( 'NONE', #40, #8, #647, .T. ) ;
#512 = CARTESIAN_POINT ( 'NONE',  ( 79.25580469341009859, 107.0000000000000426, 1.000000000000000000 ) ) ;
#513 = DIRECTION ( 'NONE',  ( -1.000000000000000000, 0.000000000000000000, 0.000000000000000000 ) ) ;
#514 = PLANE ( 'NONE',  #480 ) ;
#515 = MANIFOLD_SOLID_BREP ( 'Fillet2', #781 ) ;
#516 = CARTESIAN_POINT ( 'NONE',  ( 19.48672168242269720, 136.7342704568314673, -2.698333446362073396 ) ) ;
#517 = DIRECTION ( 'NONE',  ( 0.4226182617406933351, 0.9063077870366527122, 0.000000000000000000 ) ) ;
#518 = CARTESIAN_POINT ( 'NONE',  ( 221.0917713604898154, -6.938893903907228378E-15, 0.000000000000000000 ) ) ;
#519 = PRODUCT_DEFINITION_FORMATION_WITH_SPECIFIED_SOURCE ( 'ANY', '', #775, .NOT_KNOWN. ) ;
#520 = EDGE_CURVE ( 'NONE', #555, #570, #401, .T. ) ;
#521 = PERSON_AND_ORGANIZATION ( #451, #474 ) ;
#522 = CARTESIAN_POINT ( 'NONE',  ( -190.9082286395100994, 21.00000000000001066, 0.000000000000000000 ) ) ;
#523 = DIRECTION ( 'NONE',  ( 0.000000000000000000, 0.000000000000000000, 1.000000000000000000 ) ) ;
#524 = DIRECTION ( 'NONE',  ( 0.000000000000000000, 0.000000000000000000, 1.000000000000000000 ) ) ;
#525 = CC_DESIGN_PERSON_AND_ORGANIZATION_ASSIGNMENT ( #221, #788, ( #519 ) ) ;
#526 = EDGE_CURVE ( 'NONE', #555, #731, #134, .T. ) ;
#527 = DIRECTION ( 'NONE',  ( 1.000000000000000000, 0.000000000000000000, 0.000000000000000000 ) ) ;
#528 = MECHANICAL_CONTEXT ( 'NONE', #571, 'mechanical' ) ;
#529 = DIRECTION ( 'NONE',  ( 0.000000000000000000, -1.000000000000000000, 0.000000000000000000 ) ) ;
#530 = ADVANCED_FACE ( 'NONE', ( #638 ), #403, .T. ) ;
#531 = DIRECTION ( 'NONE',  ( 0.000000000000000000, -1.000000000000000000, 0.000000000000000000 ) ) ;
#532 = EDGE_LOOP ( 'NONE', ( #640, #275, #595, #770 ) ) ;
#533 = ORIENTED_EDGE ( 'NONE', *, *, #764, .T. ) ;
#534 = PLANE ( 'NONE',  #71 ) ;
#535 = AXIS2_PLACEMENT_3D ( 'NONE', #148, #69, #142 ) ;
#536 = VERTEX_POINT ( 'NONE', #522 ) ;
#537 = AXIS2_PLACEMENT_3D ( 'NONE', #308, #617, #58 ) ;
#538 = CARTESIAN_POINT ( 'NONE',  ( 15.56387139233783756, 136.7000362609869626, 1.181050573186237518 ) ) ;
#539 = EDGE_CURVE ( 'NONE', #385, #566, #402, .T. ) ;
#540 = ORIENTED_EDGE ( 'NONE', *, *, #230, .T. ) ;
#541 = DIRECTION ( 'NONE',  ( 1.000000000000000000, 0.000000000000000000, 0.000000000000000000 ) ) ;
#542 = CARTESIAN_POINT ( 'NONE',  ( 1.040834085586084257E-14, 159.3720573940034342, 0.000000000000000000 ) ) ;
#543 = PERSON_AND_ORGANIZATION_ROLE ( 'creator' ) ;
#544 = ORIENTED_EDGE ( 'NONE', *, *, #649, .F. ) ;
#545 = AXIS2_PLACEMENT_3D ( 'NONE', #458, #524, #671 ) ;
#546 = AXIS2_PLACEMENT_3D ( 'NONE', #709, #662, #245 ) ;
#547 = ORIENTED_EDGE ( 'NONE', *, *, #800, .T. ) ;
#548 = DIRECTION ( 'NONE',  ( -0.000000000000000000, -1.000000000000000000, -0.000000000000000000 ) ) ;
#549 = CARTESIAN_POINT ( 'NONE',  ( 229.9667548570444069, 40.03246352776972117, 0.000000000000000000 ) ) ;
#550 = ORIENTED_EDGE ( 'NONE', *, *, #539, .T. ) ;
#551 = EDGE_CURVE ( 'NONE', #390, #244, #139, .T. ) ;
#552 = DIRECTION ( 'NONE',  ( 0.000000000000000000, 0.000000000000000000, 1.000000000000000000 ) ) ;
#553 = DIRECTION ( 'NONE',  ( 0.8987940462991662605, 0.4383711467890790692, 0.000000000000000000 ) ) ;
#554 = EDGE_CURVE ( 'NONE', #228, #414, #141, .T. ) ;
#555 = VERTEX_POINT ( 'NONE', #285 ) ;
#556 = ADVANCED_FACE ( 'NONE', ( #654 ), #171, .F. ) ;
#557 = DIRECTION ( 'NONE',  ( -0.000000000000000000, -0.000000000000000000, -1.000000000000000000 ) ) ;
#558 = CARTESIAN_POINT ( 'NONE',  ( -31.64319485237861329, 107.0000000000000426, 1.000000000000000000 ) ) ;
#559 = AXIS2_PLACEMENT_3D ( 'NONE', #648, #552, #541 ) ;
#560 = AXIS2_PLACEMENT_3D ( 'NONE', #420, #415, #470 ) ;
#561 = ORIENTED_EDGE ( 'NONE', *, *, #322, .T. ) ;
#562 = EDGE_CURVE ( 'NONE', #122, #464, #376, .T. ) ;
#563 = EDGE_LOOP ( 'NONE', ( #222, #468, #81 ) ) ;
#564 = DIRECTION ( 'NONE',  ( 0.9063077870366531563, -0.4226182617406930575, 0.000000000000000000 ) ) ;
#565 = PLANE ( 'NONE',  #299 ) ;
#566 = VERTEX_POINT ( 'NONE', #786 ) ;
#567 = ORIENTED_EDGE ( 'NONE', *, *, #551, .T. ) ;
#568 = ORIENTED_EDGE ( 'NONE', *, *, #551, .F. ) ;
#569 = MANIFOLD_SOLID_BREP ( 'Boss-Extrude1', #319 ) ;
#570 = VERTEX_POINT ( 'NONE', #579 ) ;
#571 = APPLICATION_CONTEXT ( 'configuration controlled 3d designs of mechanical parts and assemblies' ) ;
#572 = CARTESIAN_POINT ( 'NONE',  ( -174.7989092817135202, 37.17829283338498669, 3.673940397442058882E-16 ) ) ;
#573 = EDGE_LOOP ( 'NONE', ( #808, #561, #550, #804, #745, #47 ) ) ;
#574 = CARTESIAN_POINT ( 'NONE',  ( 19.48672168242269720, 136.7342704568314673, 2.698333446362073396 ) ) ;
#575 = APPROVAL_ROLE ( '' ) ;
#576 = AXIS2_PLACEMENT_3D ( 'NONE', #749, #140, #813 ) ;
#577 = EDGE_CURVE ( 'NONE', #536, #304, #394, .T. ) ;
#578 = DIRECTION ( 'NONE',  ( 0.000000000000000000, 0.000000000000000000, -1.000000000000000000 ) ) ;
#579 = CARTESIAN_POINT ( 'NONE',  ( -31.64319485237861329, 107.0000000000000426, 1.000000000000000000 ) ) ;
#580 = DIRECTION ( 'NONE',  ( 1.000000000000000000, 0.000000000000000000, 0.000000000000000000 ) ) ;
#581 = ORIENTED_EDGE ( 'NONE', *, *, #251, .T. ) ;
#582 = DIRECTION ( 'NONE',  ( 1.000000000000000000, 0.000000000000000000, 0.000000000000000000 ) ) ;
#583 = DIRECTION ( 'NONE',  ( 1.000000000000000000, 0.000000000000000000, 0.000000000000000000 ) ) ;
#584 = VECTOR ( 'NONE', #9, 1000.000000000000000 ) ;
#585 = CARTESIAN_POINT ( 'NONE',  ( 19.48672168242269720, 136.7342704568314673, 2.698333446362073396 ) ) ;
#586 = DATE_TIME_ROLE ( 'creation_date' ) ;
#587 = CIRCLE ( 'NONE', #241, 3.000000000000002665 ) ;
#588 = CARTESIAN_POINT ( 'NONE',  ( 15.56387139233782868, 136.7000362609869626, 3.673940397442058389E-16 ) ) ;
#589 = CC_DESIGN_PERSON_AND_ORGANIZATION_ASSIGNMENT ( #256, #543, ( #519 ) ) ;
#590 = DIRECTION ( 'NONE',  ( 0.4226182617406896158, 0.9063077870366545996, 0.000000000000000000 ) ) ;
#591 = TOROIDAL_SURFACE ( 'NONE', #698, 18.99999999999998934, 2.999999999999998668 ) ;
#592 = EDGE_CURVE ( 'NONE', #8, #228, #653, .T. ) ;
#593 = ORIENTED_EDGE ( 'NONE', *, *, #375, .F. ) ;
#594 = ORIENTED_EDGE ( 'NONE', *, *, #599, .T. ) ;
#595 = ORIENTED_EDGE ( 'NONE', *, *, #407, .F. ) ;
#596 = ADVANCED_FACE ( 'NONE', ( #136 ), #384, .T. ) ;
#597 = EDGE_LOOP ( 'NONE', ( #76, #231, #208, #191 ) ) ;
#598 = FACE_OUTER_BOUND ( 'NONE', #183, .T. ) ;
#599 = EDGE_CURVE ( 'NONE', #40, #89, #128, .T. ) ;
#600 = FACE_OUTER_BOUND ( 'NONE', #307, .T. ) ;
#601 = ORIENTED_EDGE ( 'NONE', *, *, #33, .F. ) ;
#602 = TOROIDAL_SURFACE ( 'NONE', #809, 20.99999999999998579, 2.999999999999998668 ) ;
#603 = FACE_OUTER_BOUND ( 'NONE', #727, .T. ) ;
#604 = VERTEX_POINT ( 'NONE', #460 ) ;
#605 = VECTOR ( 'NONE', #126, 1000.000000000000000 ) ;
#606 = VECTOR ( 'NONE', #78, 1000.000000000000227 ) ;
#607 = DIRECTION ( 'NONE',  ( 1.000000000000000000, 0.000000000000000000, 0.000000000000000000 ) ) ;
#608 = ORIENTED_EDGE ( 'NONE', *, *, #230, .F. ) ;
#609 = CARTESIAN_POINT ( 'NONE',  ( 26.99999999999999645, 208.0000000000000000, 0.000000000000000000 ) ) ;
#610 = ORIENTED_EDGE ( 'NONE', *, *, #391, .F. ) ;
#611 = ADVANCED_FACE ( 'NONE', ( #632 ), #396, .T. ) ;
#612 = CARTESIAN_POINT ( 'NONE',  ( -31.64319485237861329, 107.0000000000000426, -1.000000000000000000 ) ) ;
#613 = EDGE_LOOP ( 'NONE', ( #722, #338, #459, #493 ) ) ;
#614 = CIRCLE ( 'NONE', #441, 2.999999999999998668 ) ;
#615 = CIRCLE ( 'NONE', #507, 2.999999999999998668 ) ;
#616 = FACE_OUTER_BOUND ( 'NONE', #271, .T. ) ;
#617 = DIRECTION ( 'NONE',  ( -1.217063773920450222E-16, 1.360718665719282659E-17, 1.000000000000000000 ) ) ;
#618 = DIRECTION ( 'NONE',  ( -0.000000000000000000, -0.000000000000000000, -1.000000000000000000 ) ) ;
#619 = ORIENTED_EDGE ( 'NONE', *, *, #592, .F. ) ;
#620 = CIRCLE ( 'NONE', #423, 2.999999999999998668 ) ;
#621 = EDGE_CURVE ( 'NONE', #711, #122, #661, .T. ) ;
#622 = ORIENTED_EDGE ( 'NONE', *, *, #72, .T. ) ;
#623 = CARTESIAN_POINT ( 'NONE',  ( -31.64319485237861329, 107.0000000000000426, 1.000000000000000000 ) ) ;
#624 = FACE_OUTER_BOUND ( 'NONE', #438, .T. ) ;
#625 = ORIENTED_EDGE ( 'NONE', *, *, #677, .T. ) ;
#626 = ORIENTED_EDGE ( 'NONE', *, *, #210, .T. ) ;
#627 = SPHERICAL_SURFACE ( 'NONE', #466, 3.000000000000000000 ) ;
#628 = CIRCLE ( 'NONE', #806, 2.999999999999996003 ) ;
#629 = AXIS2_PLACEMENT_3D ( 'NONE', #289, #340, #411 ) ;
#630 = FACE_OUTER_BOUND ( 'NONE', #150, .T. ) ;
#631 = ORIENTED_EDGE ( 'NONE', *, *, #29, .T. ) ;
#632 = FACE_OUTER_BOUND ( 'NONE', #345, .T. ) ;
#633 = EDGE_CURVE ( 'NONE', #80, #467, #398, .T. ) ;
#634 = CIRCLE ( 'NONE', #363, 23.99999999999999289 ) ;
#635 = DIRECTION ( 'NONE',  ( 0.9063077870366526012, -0.4226182617406936126, -0.000000000000000000 ) ) ;
#636 = ORIENTED_EDGE ( 'NONE', *, *, #114, .F. ) ;
#637 = VECTOR ( 'NONE', #316, 1000.000000000000114 ) ;
#638 = FACE_OUTER_BOUND ( 'NONE', #267, .T. ) ;
#639 = CIRCLE ( 'NONE', #686, 23.99999999999999289 ) ;
#640 = ORIENTED_EDGE ( 'NONE', *, *, #302, .T. ) ;
#641 = TOROIDAL_SURFACE ( 'NONE', #91, 20.99999999999998579, 2.999999999999998668 ) ;
#642 = VECTOR ( 'NONE', #181, 1000.000000000000000 ) ;
#643 = PERSON_AND_ORGANIZATION_ROLE ( 'design_owner' ) ;
#644 = AXIS2_PLACEMENT_3D ( 'NONE', #719, #418, #409 ) ;
#645 = APPROVAL ( #106, 'UNSPECIFIED' ) ;
#646 = EDGE_CURVE ( 'NONE', #504, #290, #674, .T. ) ;
#647 = CIRCLE ( 'NONE', #400, 17.99999999999998934 ) ;
#648 = CARTESIAN_POINT ( 'NONE',  ( 18.99999999999998934, 159.3720573940034058, 0.000000000000000000 ) ) ;
#649 = EDGE_CURVE ( 'NONE', #288, #650, #133, .T. ) ;
#650 = VERTEX_POINT ( 'NONE', #224 ) ;
#651 = DIRECTION ( 'NONE',  ( 1.000000000000000000, 0.000000000000000000, 0.000000000000000000 ) ) ;
#652 = ADVANCED_FACE ( 'NONE', ( #147 ), #691, .T. ) ;
#653 = CIRCLE ( 'NONE', #560, 17.99999999999998934 ) ;
#654 = FACE_OUTER_BOUND ( 'NONE', #532, .T. ) ;
#655 = ORIENTED_EDGE ( 'NONE', *, *, #511, .T. ) ;
#656 = DIRECTION ( 'NONE',  ( -0.000000000000000000, -1.000000000000000000, -0.000000000000000000 ) ) ;
#657 = DIRECTION ( 'NONE',  ( 0.8987940462991662605, 0.4383711467890790692, 0.000000000000000000 ) ) ;
#658 = CARTESIAN_POINT ( 'NONE',  ( 10.97025302692680704, 142.1522094403069900, 0.000000000000000000 ) ) ;
#659 = CC_DESIGN_PERSON_AND_ORGANIZATION_ASSIGNMENT ( #521, #282, ( #185 ) ) ;
#660 = AXIS2_PLACEMENT_3D ( 'NONE', #609, #257, #75 ) ;
#661 = LINE ( 'NONE', #724, #130 ) ;
#662 = DIRECTION ( 'NONE',  ( -0.4226182617406933906, -0.9063077870366528233, 0.000000000000000000 ) ) ;
#663 = CARTESIAN_POINT ( 'NONE',  ( 20.66316979979006163, 134.3221943623744039, 3.673940397442058389E-16 ) ) ;
#664 = CARTESIAN_POINT ( 'NONE',  ( -31.64319485237861329, 107.0000000000000426, -1.000000000000000000 ) ) ;
#665 = CIRCLE ( 'NONE', #26, 23.99999999999999289 ) ;
#666 = CARTESIAN_POINT ( 'NONE',  ( 18.99999999999998934, 159.3720573940034058, -3.673940397442058389E-16 ) ) ;
#667 = LINE ( 'NONE', #558, #386 ) ;
#668 = VECTOR ( 'NONE', #5, 1000.000000000000000 ) ;
#669 = DIRECTION ( 'NONE',  ( 0.000000000000000000, -1.000000000000000000, 0.000000000000000000 ) ) ;
#670 = DIRECTION ( 'NONE',  ( 0.4226182617406929465, 0.9063077870366530453, 0.000000000000000000 ) ) ;
#671 = DIRECTION ( 'NONE',  ( 1.000000000000000000, 0.000000000000000000, 0.000000000000000000 ) ) ;
#672 = AXIS2_PLACEMENT_3D ( 'NONE', #362, #802, #492 ) ;
#673 =( GEOMETRIC_REPRESENTATION_CONTEXT ( 3 ) GLOBAL_UNCERTAINTY_ASSIGNED_CONTEXT ( ( #784 ) ) GLOBAL_UNIT_ASSIGNED_CONTEXT ( ( #158, #334, #15 ) ) REPRESENTATION_CONTEXT ( 'NONE', 'WORKASPACE' ) );
#674 =( BOUNDED_CURVE ( )  B_SPLINE_CURVE ( 3, ( #485, #538, #701, #574 ),
 .UNSPECIFIED., .F., .F. ) 
 B_SPLINE_CURVE_WITH_KNOTS ( ( 4, 4 ),
 ( 3.141592653589793116, 4.260089395216167141 ),
 .UNSPECIFIED. ) 
 CURVE ( )  GEOMETRIC_REPRESENTATION_ITEM ( )  RATIONAL_B_SPLINE_CURVE ( ( 1.000000000000000000, 0.8984360844659646794, 0.8984360844659646794, 1.000000000000000000 ) ) 
 REPRESENTATION_ITEM ( '' )  );
#675 = DIRECTION ( 'NONE',  ( 0.000000000000000000, -1.000000000000000000, 0.000000000000000000 ) ) ;
#676 = FACE_OUTER_BOUND ( 'NONE', #310, .T. ) ;
#677 = EDGE_CURVE ( 'NONE', #442, #244, #428, .T. ) ;
#678 = LINE ( 'NONE', #612, #668 ) ;
#679 = ORIENTED_EDGE ( 'NONE', *, *, #293, .T. ) ;
#680 = LINE ( 'NONE', #688, #154 ) ;
#681 = DIRECTION ( 'NONE',  ( 0.000000000000000000, 0.000000000000000000, 1.000000000000000000 ) ) ;
#682 = DIRECTION ( 'NONE',  ( -0.4383711467890790137, 0.8987940462991662605, 0.000000000000000000 ) ) ;
#683 = ORIENTED_EDGE ( 'NONE', *, *, #751, .T. ) ;
#684 = FACE_OUTER_BOUND ( 'NONE', #699, .T. ) ;
#685 = DIRECTION ( 'NONE',  ( 0.000000000000000000, -0.000000000000000000, 1.000000000000000000 ) ) ;
#686 = AXIS2_PLACEMENT_3D ( 'NONE', #811, #426, #431 ) ;
#687 = EDGE_CURVE ( 'NONE', #288, #419, #693, .T. ) ;
#688 = CARTESIAN_POINT ( 'NONE',  ( 1.040834085586084257E-14, 208.0000000000000568, -2.999999999999998668 ) ) ;
#689 = DIRECTION ( 'NONE',  ( -1.000000000000000000, 0.000000000000000000, 0.000000000000000000 ) ) ;
#690 = EDGE_CURVE ( 'NONE', #348, #52, #678, .T. ) ;
#691 = CYLINDRICAL_SURFACE ( 'NONE', #92, 3.000000000000001332 ) ;
#692 = ORIENTED_EDGE ( 'NONE', *, *, #375, .T. ) ;
#693 = CIRCLE ( 'NONE', #60, 3.000000000000000444 ) ;
#694 = ADVANCED_FACE ( 'NONE', ( #676 ), #743, .F. ) ;
#695 = DIRECTION ( 'NONE',  ( 0.4383711467890789026, -0.8987940462991662605, 0.000000000000000000 ) ) ;
#696 = DIRECTION ( 'NONE',  ( -1.000000000000000000, 5.365124152505590229E-17, -0.000000000000000000 ) ) ;
#697 = DIRECTION ( 'NONE',  ( 0.4226182617406929465, 0.9063077870366530453, 0.000000000000000000 ) ) ;
#698 = AXIS2_PLACEMENT_3D ( 'NONE', #55, #795, #710 ) ;
#699 = EDGE_LOOP ( 'NONE', ( #761, #109, #655, #733 ) ) ;
#700 = ORIENTED_EDGE ( 'NONE', *, *, #646, .F. ) ;
#701 = CARTESIAN_POINT ( 'NONE',  ( 17.01930799597656119, 136.7127376638047451, 2.182172965387709773 ) ) ;
#702 = ORIENTED_EDGE ( 'NONE', *, *, #151, .T. ) ;
#703 = CYLINDRICAL_SURFACE ( 'NONE', #265, 2.999999999999998668 ) ;
#704 = CARTESIAN_POINT ( 'NONE',  ( 19.48672168242269720, 136.7342704568314673, -2.698333446362073396 ) ) ;
#705 = SECURITY_CLASSIFICATION_LEVEL ( 'unclassified' ) ;
#706 = AXIS2_PLACEMENT_3D ( 'NONE', #542, #792, #95 ) ;
#707 = PLANE ( 'NONE',  #327 ) ;
#708 = EDGE_CURVE ( 'NONE', #167, #604, #168, .T. ) ;
#709 = CARTESIAN_POINT ( 'NONE',  ( 79.25580469341009859, 107.0000000000000426, 1.000000000000000000 ) ) ;
#710 = DIRECTION ( 'NONE',  ( 1.000000000000000000, 0.000000000000000000, 0.000000000000000000 ) ) ;
#711 = VERTEX_POINT ( 'NONE', #497 ) ;
#712 = VECTOR ( 'NONE', #553, 1000.000000000000000 ) ;
#713 = DIRECTION ( 'NONE',  ( 0.000000000000000000, -1.000000000000000000, 0.000000000000000000 ) ) ;
#714 = APPROVAL_PERSON_ORGANIZATION ( #729, #193, #575 ) ;
#715 = DIRECTION ( 'NONE',  ( 0.8987940462991672597, 0.4383711467890767932, 0.000000000000000000 ) ) ;
#716 = DATE_AND_TIME ( #201, #450 ) ;
#717 = AXIS2_PLACEMENT_3D ( 'NONE', #666, #681, #762 ) ;
#718 = APPROVAL_DATE_TIME ( #449, #193 ) ;
#719 = CARTESIAN_POINT ( 'NONE',  ( 221.0917713604898438, 21.00000000000000000, 0.000000000000000000 ) ) ;
#720 = ORIENTED_EDGE ( 'NONE', *, *, #274, .F. ) ;
#721 = EDGE_CURVE ( 'NONE', #566, #467, #680, .T. ) ;
#722 = ORIENTED_EDGE ( 'NONE', *, *, #791, .T. ) ;
#723 = CIRCLE ( 'NONE', #735, 2.999999999999998668 ) ;
#724 = CARTESIAN_POINT ( 'NONE',  ( 9.702398241704726090, 139.4332860791970177, 3.673940397442058389E-16 ) ) ;
#725 = PERSON_AND_ORGANIZATION ( #451, #474 ) ;
#726 = CARTESIAN_POINT ( 'NONE',  ( 79.25580469341009859, 107.0000000000000426, 1.000000000000000000 ) ) ;
#727 = EDGE_LOOP ( 'NONE', ( #263, #2, #625, #568, #157, #325 ) ) ;
#728 = APPROVAL_ROLE ( '' ) ;
#729 = PERSON_AND_ORGANIZATION ( #451, #474 ) ;
#730 = DIRECTION ( 'NONE',  ( -0.9063077870366527122, 0.4226182617406933906, 0.000000000000000000 ) ) ;
#731 = VERTEX_POINT ( 'NONE', #190 ) ;
#732 = PERSON_AND_ORGANIZATION ( #451, #474 ) ;
#733 = ORIENTED_EDGE ( 'NONE', *, *, #391, .T. ) ;
#734 = COORDINATED_UNIVERSAL_TIME_OFFSET ( 5, 30, .AHEAD. ) ;
#735 = AXIS2_PLACEMENT_3D ( 'NONE', #776, #531, #582 ) ;
#736 = EDGE_CURVE ( 'NONE', #419, #504, #395, .T. ) ;
#737 = ORIENTED_EDGE ( 'NONE', *, *, #562, .F. ) ;
#738 = PERSON_AND_ORGANIZATION ( #451, #474 ) ;
#739 = CARTESIAN_POINT ( 'NONE',  ( -166.9082286395100425, 1.387778780781445676E-14, 0.000000000000000000 ) ) ;
#740 = EDGE_CURVE ( 'NONE', #198, #52, #143, .T. ) ;
#741 = ORIENTED_EDGE ( 'NONE', *, *, #621, .T. ) ;
#742 = ORIENTED_EDGE ( 'NONE', *, *, #778, .F. ) ;
#743 = PLANE ( 'NONE',  #576 ) ;
#744 = LOCAL_TIME ( 23, 1, 4.000000000000000000, #204 ) ;
#745 = ORIENTED_EDGE ( 'NONE', *, *, #633, .F. ) ;
#746 = ORIENTED_EDGE ( 'NONE', *, *, #312, .T. ) ;
#747 = DIRECTION ( 'NONE',  ( 1.000000000000000000, 0.000000000000000000, 0.000000000000000000 ) ) ;
#748 = ORIENTED_EDGE ( 'NONE', *, *, #649, .T. ) ;
#749 = CARTESIAN_POINT ( 'NONE',  ( -31.64319485237861329, 107.0000000000000426, 1.000000000000000000 ) ) ;
#750 = CARTESIAN_POINT ( 'NONE',  ( 221.0917713604898154, -6.938893903907228378E-15, 0.000000000000000000 ) ) ;
#751 = EDGE_CURVE ( 'NONE', #24, #604, #397, .T. ) ;
#752 = ADVANCED_FACE ( 'NONE', ( #392 ), #161, .T. ) ;
#753 = DIRECTION ( 'NONE',  ( -1.000000000000000000, 0.000000000000000000, 0.000000000000000000 ) ) ;
#754 = CARTESIAN_POINT ( 'NONE',  ( 18.99999999999998934, 159.3720573940034058, 0.000000000000000000 ) ) ;
#755 = DIRECTION ( 'NONE',  ( 0.8987940462991662605, 0.4383711467890789026, 0.000000000000000000 ) ) ;
#756 = COORDINATED_UNIVERSAL_TIME_OFFSET ( 5, 30, .AHEAD. ) ;
#757 = ORIENTED_EDGE ( 'NONE', *, *, #778, .T. ) ;
#758 = ADVANCED_FACE ( 'NONE', ( #421 ), #412, .T. ) ;
#759 = ORIENTED_EDGE ( 'NONE', *, *, #592, .T. ) ;
#760 = AXIS2_PLACEMENT_3D ( 'NONE', #280, #332, #404 ) ;
#761 = ORIENTED_EDGE ( 'NONE', *, *, #293, .F. ) ;
#762 = DIRECTION ( 'NONE',  ( 1.000000000000000000, 0.000000000000000000, 0.000000000000000000 ) ) ;
#763 = CARTESIAN_POINT ( 'NONE',  ( -166.9082286395100994, 21.00000000000001066, 0.000000000000000000 ) ) ;
#764 = EDGE_CURVE ( 'NONE', #390, #288, #425, .T. ) ;
#765 = CARTESIAN_POINT ( 'NONE',  ( -184.9082286395100994, 21.00000000000001066, 3.673940397442053459E-16 ) ) ;
#766 = CYLINDRICAL_SURFACE ( 'NONE', #283, 2.999999999999998668 ) ;
#767 = ORIENTED_EDGE ( 'NONE', *, *, #520, .T. ) ;
#768 = DIRECTION ( 'NONE',  ( 1.000000000000000000, 0.000000000000000000, -0.000000000000000000 ) ) ;
#769 = CARTESIAN_POINT ( 'NONE',  ( -166.9082286395100994, 21.00000000000001066, 3.673940397442058389E-16 ) ) ;
#770 = ORIENTED_EDGE ( 'NONE', *, *, #740, .T. ) ;
#771 = ADVANCED_FACE ( 'NONE', ( #684 ), #176, .T. ) ;
#772 = EDGE_LOOP ( 'NONE', ( #215, #276, #237, #533, #502 ) ) ;
#773 = DIRECTION ( 'NONE',  ( 1.027984282060330554E-15, 1.000000000000000000, -0.000000000000000000 ) ) ;
#774 = CARTESIAN_POINT ( 'NONE',  ( 1.040834085586084257E-14, 159.3720573940034342, 0.000000000000000000 ) ) ;
#775 = PRODUCT ( 'COAT HANGER', 'COAT HANGER', '', ( #528 ) ) ;
#776 = CARTESIAN_POINT ( 'NONE',  ( 1.040834085586084257E-14, 159.3720573940034342, 0.000000000000000000 ) ) ;
#777 = DIRECTION ( 'NONE',  ( 0.000000000000000000, -1.000000000000000000, 0.000000000000000000 ) ) ;
#778 = EDGE_CURVE ( 'NONE', #304, #504, #170, .T. ) ;
#779 = CARTESIAN_POINT ( 'NONE',  ( 3.000000000000009326, 208.0000000000000568, -3.673940397442059868E-16 ) ) ;
#780 = APPROVAL_DATE_TIME ( #246, #461 ) ;
#781 = CLOSED_SHELL ( 'NONE', ( #14, #373, #54, #31, #752, #596, #446, #771, #216, #652, #326, #530, #264, #273, #611, #177, #758, #796, #163, #3, #65 ) ) ;
#782 = LOCAL_TIME ( 23, 1, 4.000000000000000000, #253 ) ;
#783 = AXIS2_PLACEMENT_3D ( 'NONE', #774, #152, #607 ) ;
#784 = UNCERTAINTY_MEASURE_WITH_UNIT (LENGTH_MEASURE( 1.000000000000000082E-05 ), #158, 'distance_accuracy_value', 'NONE');
#785 = DATE_AND_TIME ( #240, #234 ) ;
#786 = CARTESIAN_POINT ( 'NONE',  ( 1.040834085586084257E-14, 208.0000000000000568, -2.999999999999998668 ) ) ;
#787 = CARTESIAN_POINT ( 'NONE',  ( 10.97025302692686211, 142.1522094403069616, 0.000000000000000000 ) ) ;
#788 = PERSON_AND_ORGANIZATION_ROLE ( 'design_supplier' ) ;
#789 = CARTESIAN_POINT ( 'NONE',  ( 79.25580469341009859, 107.0000000000000426, 1.000000000000000000 ) ) ;
#790 = SHAPE_DEFINITION_REPRESENTATION ( #25, #281 ) ;
#791 = EDGE_CURVE ( 'NONE', #731, #348, #192, .T. ) ;
#792 = DIRECTION ( 'NONE',  ( 0.000000000000000000, -1.000000000000000000, 0.000000000000000000 ) ) ;
#793 = DIRECTION ( 'NONE',  ( 0.000000000000000000, 0.000000000000000000, -1.000000000000000000 ) ) ;
#794 = CARTESIAN_POINT ( 'NONE',  ( -187.9082286395100994, 21.00000000000001066, 0.000000000000000000 ) ) ;
#795 = DIRECTION ( 'NONE',  ( 0.000000000000000000, 0.000000000000000000, 1.000000000000000000 ) ) ;
#796 = ADVANCED_FACE ( 'NONE', ( #436 ), #703, .T. ) ;
#797 = DATE_TIME_ROLE ( 'classification_date' ) ;
#798 = ORIENTED_EDGE ( 'NONE', *, *, #186, .F. ) ;
#799 = DIRECTION ( 'NONE',  ( -1.000000000000000000, 0.000000000000000000, 0.000000000000000000 ) ) ;
#800 = EDGE_CURVE ( 'NONE', #711, #477, #225, .T. ) ;
#801 = CARTESIAN_POINT ( 'NONE',  ( 53.99999999999998579, 207.9999999999999716, 0.000000000000000000 ) ) ;
#802 = DIRECTION ( 'NONE',  ( 0.000000000000000000, -1.000000000000000000, 0.000000000000000000 ) ) ;
#803 = ORIENTED_EDGE ( 'NONE', *, *, #687, .T. ) ;
#804 = ORIENTED_EDGE ( 'NONE', *, *, #721, .T. ) ;
#805 = DIRECTION ( 'NONE',  ( 1.027984282060330554E-15, 1.000000000000000000, -0.000000000000000000 ) ) ;
#806 = AXIS2_PLACEMENT_3D ( 'NONE', #86, #155, #30 ) ;
#807 = CC_DESIGN_SECURITY_CLASSIFICATION ( #185, ( #519 ) ) ;
#808 = ORIENTED_EDGE ( 'NONE', *, *, #677, .F. ) ;
#809 = AXIS2_PLACEMENT_3D ( 'NONE', #146, #378, #209 ) ;
#810 = CARTESIAN_POINT ( 'NONE',  ( 0.000000000000000000, 0.000000000000000000, 1.000000000000000000 ) ) ;
#811 = CARTESIAN_POINT ( 'NONE',  ( 26.99999999999999645, 208.0000000000000000, -3.673940397442058389E-16 ) ) ;
#812 = EDGE_CURVE ( 'NONE', #467, #390, #723, .T. ) ;
#813 = DIRECTION ( 'NONE',  ( 0.000000000000000000, -0.000000000000000000, 1.000000000000000000 ) ) ;
ENDSEC;
END-ISO-10303-21;
